<svg width="231" height="110" viewBox="0 0 231 110" fill="none" xmlns="http://www.w3.org/2000/svg">
<path d="M83.1411 9.10207L83.8827 8.99942L87.3779 0H88.5384L91.9718 8.99942L92.7065 9.10207V9.96438H89.8362V9.10207L90.5916 8.97204L89.9324 7.13794H85.929L85.2492 8.97204L86.0046 9.10207V9.96438H83.1411V9.10207ZM86.3479 6.00874H89.5204L87.9685 1.73145H87.9273L86.3479 6.00874Z" fill="#999591"/>
<path d="M95.4601 3.42868L94.6086 3.57924L95.5769 7.26797L95.7348 8.16449H95.776L95.9683 7.26797L97.4515 2.55953H98.5364L100.027 7.26797L100.239 8.26715H100.281L100.48 7.26797L101.393 3.57924L100.528 3.42868V2.55953H103.357V3.42868L102.711 3.52449L100.837 9.96438H99.745L98.303 5.4544L97.994 4.20885L97.9528 4.2157L97.6644 5.4544L96.2498 9.96438H95.158L93.2834 3.52449L92.631 3.42868V2.55953H95.4601V3.42868Z" fill="#999591"/>
<path d="M107.848 10.1081C106.813 10.1081 105.989 9.76591 105.376 9.08154C104.767 8.39261 104.462 7.50066 104.462 6.40567V6.10455C104.462 5.05062 104.776 4.17464 105.403 3.47658C106.035 2.77397 106.781 2.42266 107.642 2.42266C108.64 2.42266 109.395 2.72378 109.908 3.32602C110.425 3.92826 110.684 4.73125 110.684 5.73499V6.57676H105.863L105.843 6.61098C105.856 7.32272 106.037 7.909 106.385 8.3698C106.733 8.82605 107.221 9.05417 107.848 9.05417C108.306 9.05417 108.706 8.9903 109.049 8.86255C109.397 8.73024 109.697 8.55002 109.949 8.3219L110.478 9.19789C110.212 9.45338 109.86 9.6701 109.42 9.84803C108.985 10.0214 108.461 10.1081 107.848 10.1081ZM107.642 3.48343C107.189 3.48343 106.802 3.67505 106.481 4.05829C106.161 4.43698 105.964 4.91375 105.891 5.48862L105.905 5.52284H109.331V5.3449C109.331 4.81566 109.189 4.3731 108.905 4.01723C108.621 3.66136 108.2 3.48343 107.642 3.48343Z" fill="#999591"/>
<path d="M117.708 4.88638H116.692L116.472 3.9967C116.308 3.84158 116.099 3.71839 115.848 3.62714C115.6 3.53133 115.319 3.48343 115.003 3.48343C114.522 3.48343 114.165 3.58836 113.932 3.79823C113.698 4.00811 113.582 4.26132 113.582 4.55788C113.582 4.84988 113.685 5.08028 113.891 5.24909C114.097 5.4179 114.515 5.56846 115.147 5.70077C116.086 5.90152 116.784 6.17527 117.242 6.52201C117.699 6.8642 117.928 7.325 117.928 7.90443C117.928 8.56143 117.66 9.09295 117.125 9.49901C116.594 9.90506 115.898 10.1081 115.037 10.1081C114.474 10.1081 113.968 10.0442 113.52 9.91647C113.071 9.78416 112.671 9.59482 112.318 9.34845L112.311 7.65806H113.327L113.582 8.65039C113.737 8.79183 113.948 8.89448 114.213 8.95836C114.483 9.02223 114.758 9.05417 115.037 9.05417C115.518 9.05417 115.893 8.95836 116.163 8.76674C116.438 8.57055 116.575 8.31505 116.575 8.00025C116.575 7.70369 116.461 7.4596 116.232 7.26797C116.008 7.07635 115.58 6.90982 114.948 6.76838C114.046 6.5722 113.366 6.3053 112.909 5.96768C112.451 5.63006 112.222 5.17381 112.222 4.59894C112.222 3.9967 112.478 3.48343 112.991 3.05912C113.508 2.63481 114.179 2.42266 115.003 2.42266C115.566 2.42266 116.072 2.49566 116.521 2.64165C116.969 2.78765 117.342 2.99068 117.64 3.25074L117.708 4.88638Z" fill="#999591"/>
<path d="M119.199 6.19352C119.199 5.09853 119.496 4.19745 120.091 3.49027C120.686 2.77853 121.494 2.42266 122.515 2.42266C123.541 2.42266 124.351 2.77625 124.946 3.48343C125.546 4.1906 125.846 5.09397 125.846 6.19352V6.34408C125.846 7.44819 125.548 8.35155 124.953 9.05417C124.358 9.75679 123.55 10.1081 122.529 10.1081C121.499 10.1081 120.686 9.75679 120.091 9.05417C119.496 8.34699 119.199 7.44363 119.199 6.34408V6.19352ZM120.551 6.34408C120.551 7.12882 120.716 7.77668 121.046 8.28768C121.38 8.79867 121.874 9.05417 122.529 9.05417C123.17 9.05417 123.657 8.79867 123.992 8.28768C124.326 7.77668 124.493 7.12882 124.493 6.34408V6.19352C124.493 5.4179 124.326 4.77232 123.992 4.25676C123.657 3.7412 123.165 3.48343 122.515 3.48343C121.865 3.48343 121.375 3.7412 121.046 4.25676C120.716 4.77232 120.551 5.4179 120.551 6.19352V6.34408Z" fill="#999591"/>
<path d="M126.821 9.10207L127.94 8.91045V3.6203L126.821 3.42868V2.55953H129.155L129.245 3.52449C129.483 3.17318 129.789 2.90171 130.165 2.71009C130.54 2.51847 130.975 2.42266 131.47 2.42266C131.964 2.42266 132.387 2.53672 132.74 2.76484C133.097 2.99296 133.365 3.33515 133.543 3.79139C133.777 3.37165 134.086 3.03859 134.47 2.79222C134.855 2.54584 135.303 2.42266 135.816 2.42266C136.576 2.42266 137.176 2.68272 137.615 3.20284C138.055 3.71839 138.275 4.49629 138.275 5.53653V8.91045L139.394 9.10207V9.96438H135.796V9.10207L136.915 8.91045V5.52284C136.915 4.79285 136.789 4.27729 136.537 3.97617C136.285 3.67049 135.912 3.51764 135.418 3.51764C134.946 3.51764 134.566 3.68417 134.278 4.01723C133.994 4.34573 133.829 4.76091 133.784 5.26278V8.91045L134.903 9.10207V9.96438H131.312V9.10207L132.431 8.91045V5.52284C132.431 4.82935 132.3 4.32292 132.039 4.00354C131.783 3.67961 131.41 3.51764 130.92 3.51764C130.508 3.51764 130.169 3.60205 129.904 3.77086C129.638 3.93967 129.435 4.17692 129.293 4.4826V8.91045L130.412 9.10207V9.96438H126.821V9.10207Z" fill="#999591"/>
<path d="M143.706 10.1081C142.672 10.1081 141.848 9.76591 141.234 9.08154C140.625 8.39261 140.321 7.50066 140.321 6.40567V6.10455C140.321 5.05062 140.634 4.17464 141.262 3.47658C141.893 2.77397 142.64 2.42266 143.5 2.42266C144.498 2.42266 145.253 2.72378 145.766 3.32602C146.283 3.92826 146.542 4.73125 146.542 5.73499V6.57676H141.722L141.701 6.61098C141.715 7.32272 141.896 7.909 142.244 8.3698C142.591 8.82605 143.079 9.05417 143.706 9.05417C144.164 9.05417 144.564 8.9903 144.908 8.86255C145.256 8.73024 145.556 8.55002 145.807 8.3219L146.336 9.19789C146.071 9.45338 145.718 9.6701 145.279 9.84803C144.844 10.0214 144.32 10.1081 143.706 10.1081ZM143.5 3.48343C143.047 3.48343 142.66 3.67505 142.34 4.05829C142.019 4.43698 141.822 4.91375 141.749 5.48862L141.763 5.52284H145.189V5.3449C145.189 4.81566 145.047 4.3731 144.764 4.01723C144.48 3.66136 144.059 3.48343 143.5 3.48343Z" fill="#999591"/>
<g filter="url(#filter0_d)">
<path d="M32.4932 55V52.7441L34.8223 52.3047V36.3818L32.4932 35.9424V33.6719H42.3516C44.7539 33.6719 46.6191 34.2188 47.9473 35.3125C49.2754 36.3965 49.9395 37.9102 49.9395 39.8535C49.9395 41.1914 49.5977 42.3486 48.9141 43.3252C48.2402 44.292 47.3125 45.0098 46.1309 45.4785L49.207 52.3633L50.877 52.7148V55H46.3652L42.6738 46.0791L38.5137 46.123V52.3047L40.8428 52.7441V55H32.4932ZM38.5137 43.252H42.1904C43.5771 43.252 44.6025 42.9736 45.2666 42.417C45.9307 41.8506 46.2627 41.0303 46.2627 39.9561C46.2627 38.9111 45.9355 38.0811 45.2812 37.4658C44.6367 36.8408 43.6602 36.5283 42.3516 36.5283H38.5137V43.252ZM60.4277 55.3076C58.9238 55.3076 57.6201 54.9756 56.5166 54.3115C55.4131 53.6377 54.5537 52.71 53.9385 51.5283C53.333 50.3467 53.0303 48.9941 53.0303 47.4707V46.8555C53.0303 45.3125 53.3281 43.9404 53.9238 42.7393C54.5293 41.5283 55.3545 40.5811 56.3994 39.8975C57.4541 39.2041 58.6602 38.8574 60.0176 38.8574C62.1562 38.8574 63.7822 39.4922 64.8955 40.7617C66.0186 42.0312 66.5801 43.7744 66.5801 45.9912V48.1006H56.8535L56.8242 48.1738C56.8828 49.4238 57.2441 50.4541 57.9082 51.2646C58.5723 52.0654 59.5195 52.4658 60.75 52.4658C61.6094 52.4658 62.3906 52.3486 63.0938 52.1143C63.7969 51.8799 64.4512 51.5479 65.0566 51.1182L66.1992 53.4326C65.5742 53.9697 64.7783 54.4189 63.8115 54.7803C62.8545 55.1318 61.7266 55.3076 60.4277 55.3076ZM56.9121 45.5078H63.0498V45.127C63.0498 44.0918 62.8057 43.252 62.3174 42.6074C61.8389 41.9629 61.0869 41.6406 60.0615 41.6406C59.1631 41.6406 58.4355 42.002 57.8789 42.7246C57.332 43.4473 56.9951 44.3506 56.8682 45.4346L56.9121 45.5078ZM75.3398 55.3076C74.207 55.3076 73.1475 55.2002 72.1611 54.9854C71.1846 54.7607 70.2031 54.4336 69.2168 54.0039L69.1729 49.8145H71.8242L72.3809 52.0996C72.8105 52.2949 73.2451 52.4414 73.6846 52.5391C74.124 52.6367 74.6172 52.6855 75.1641 52.6855C76.2188 52.6855 76.9609 52.5 77.3906 52.1289C77.8301 51.7578 78.0498 51.2988 78.0498 50.752C78.0498 50.2344 77.8203 49.7852 77.3613 49.4043C76.9121 49.0234 76.0479 48.6963 74.7686 48.4229C72.8643 48.0127 71.4678 47.417 70.5791 46.6357C69.6904 45.8447 69.2461 44.8193 69.2461 43.5596C69.2461 42.7002 69.4756 41.9141 69.9346 41.2012C70.4033 40.4883 71.0869 39.9219 71.9854 39.502C72.8936 39.082 74.0068 38.8721 75.3252 38.8721C76.5264 38.8721 77.5908 38.999 78.5186 39.2529C79.4561 39.4971 80.252 39.8242 80.9062 40.2344L81.0088 44.2627H78.3721L77.918 42.168C77.2832 41.7188 76.4727 41.4941 75.4863 41.4941C74.6758 41.4941 74.0361 41.6748 73.5674 42.0361C73.0986 42.3877 72.8643 42.832 72.8643 43.3691C72.8643 43.8379 73.0498 44.2432 73.4209 44.585C73.792 44.9268 74.6123 45.2393 75.8818 45.5225C77.9424 46.001 79.417 46.626 80.3057 47.3975C81.1943 48.1689 81.6387 49.1895 81.6387 50.459C81.6387 51.875 81.1211 53.0371 80.0859 53.9453C79.0508 54.8535 77.4688 55.3076 75.3398 55.3076ZM91.2188 55.3076C89.7148 55.3076 88.4111 54.9756 87.3076 54.3115C86.2041 53.6377 85.3447 52.71 84.7295 51.5283C84.124 50.3467 83.8213 48.9941 83.8213 47.4707V46.8555C83.8213 45.3125 84.1191 43.9404 84.7148 42.7393C85.3203 41.5283 86.1455 40.5811 87.1904 39.8975C88.2451 39.2041 89.4512 38.8574 90.8086 38.8574C92.9473 38.8574 94.5732 39.4922 95.6865 40.7617C96.8096 42.0312 97.3711 43.7744 97.3711 45.9912V48.1006H87.6445L87.6152 48.1738C87.6738 49.4238 88.0352 50.4541 88.6992 51.2646C89.3633 52.0654 90.3105 52.4658 91.541 52.4658C92.4004 52.4658 93.1816 52.3486 93.8848 52.1143C94.5879 51.8799 95.2422 51.5479 95.8477 51.1182L96.9902 53.4326C96.3652 53.9697 95.5693 54.4189 94.6025 54.7803C93.6455 55.1318 92.5176 55.3076 91.2188 55.3076ZM87.7031 45.5078H93.8408V45.127C93.8408 44.0918 93.5967 43.252 93.1084 42.6074C92.6299 41.9629 91.8779 41.6406 90.8525 41.6406C89.9541 41.6406 89.2266 42.002 88.6699 42.7246C88.123 43.4473 87.7861 44.3506 87.6592 45.4346L87.7031 45.5078ZM99.6416 55V52.7441L101.824 52.3047V41.8604L99.5098 41.4209V39.1504H105.223L105.413 41.1426L105.442 41.4648C106.292 39.7266 107.522 38.8574 109.134 38.8574C109.739 38.8574 110.281 38.9355 110.76 39.0918L110.335 42.5049L108.27 42.3877C107.596 42.3486 107.039 42.4805 106.6 42.7832C106.16 43.0859 105.799 43.5059 105.516 44.043V52.3047L107.713 52.7441V55H99.6416ZM118.714 55L113.572 41.6699L111.888 41.4209V39.1504H119.139V41.4209L117.308 41.7139L120.164 49.668L120.545 50.9277H120.633L121.072 49.668L123.958 41.7139L121.951 41.4209V39.1504H129.188V41.4209L127.459 41.6846L122.303 55H118.714ZM135.545 55.3076C133.934 55.3076 132.679 54.8926 131.78 54.0625C130.882 53.2324 130.433 52.0898 130.433 50.6348C130.433 49.1406 131.038 47.9297 132.249 47.002C133.47 46.0742 135.218 45.6104 137.493 45.6104H139.91V44.2773C139.91 43.4375 139.656 42.7686 139.148 42.2705C138.65 41.7725 137.923 41.5234 136.966 41.5234C136.419 41.5234 135.936 41.5918 135.516 41.7285C135.096 41.8555 134.72 42.041 134.388 42.2852L134.065 44.4238H131.341L131.312 40.5127C132.083 39.9951 132.947 39.5898 133.904 39.2969C134.871 39.0039 135.94 38.8574 137.112 38.8574C139.124 38.8574 140.706 39.3311 141.858 40.2783C143.021 41.2256 143.602 42.5732 143.602 44.3213V51.3086C143.602 51.5234 143.602 51.7334 143.602 51.9385C143.611 52.1338 143.626 52.334 143.646 52.5391L145.257 52.7441V55H140.438C140.34 54.6582 140.247 54.3262 140.159 54.0039C140.081 53.6816 140.022 53.3594 139.983 53.0371C139.456 53.7012 138.816 54.248 138.064 54.6777C137.312 55.0977 136.473 55.3076 135.545 55.3076ZM136.38 52.4512C137.132 52.4512 137.825 52.2803 138.46 51.9385C139.104 51.5869 139.588 51.1475 139.91 50.6201V47.9688H137.449C136.346 47.9688 135.511 48.2275 134.944 48.7451C134.388 49.2529 134.109 49.8486 134.109 50.5322C134.109 51.8115 134.866 52.4512 136.38 52.4512ZM152.742 55.2783C151.395 55.2783 150.345 54.9023 149.593 54.1504C148.841 53.3887 148.465 52.1777 148.465 50.5176V41.7871H146.15V39.1504H148.465V35.2979H152.142V39.1504H155.276V41.7871H152.142V50.5176C152.142 51.1914 152.278 51.6797 152.552 51.9824C152.835 52.2852 153.216 52.4365 153.694 52.4365C153.968 52.4365 154.271 52.417 154.603 52.3779C154.944 52.3291 155.223 52.2803 155.438 52.2314L155.804 54.8242C155.384 54.9512 154.896 55.0586 154.339 55.1465C153.782 55.2344 153.25 55.2783 152.742 55.2783ZM157.62 55V52.7441L159.817 52.3047V41.8604L157.488 41.4209V39.1504H163.509V52.3047L165.691 52.7441V55H157.62ZM159.671 35.5615V32.1484H163.509V35.5615H159.671ZM174.759 55.3076C173.235 55.3076 171.927 54.9658 170.833 54.2822C169.739 53.5889 168.899 52.6367 168.313 51.4258C167.728 50.2148 167.435 48.8184 167.435 47.2363V46.9287C167.435 45.3564 167.728 43.9648 168.313 42.7539C168.899 41.543 169.739 40.5908 170.833 39.8975C171.927 39.2041 173.226 38.8574 174.729 38.8574C176.253 38.8574 177.562 39.2041 178.655 39.8975C179.749 40.5811 180.589 41.5332 181.175 42.7539C181.761 43.9648 182.054 45.3564 182.054 46.9287V47.2363C182.054 48.8281 181.761 50.2295 181.175 51.4404C180.589 52.6514 179.749 53.5986 178.655 54.2822C177.571 54.9658 176.272 55.3076 174.759 55.3076ZM174.759 52.4658C175.979 52.4658 176.888 51.9824 177.483 51.0156C178.079 50.0391 178.377 48.7793 178.377 47.2363V46.9287C178.377 45.415 178.074 44.1699 177.469 43.1934C176.873 42.207 175.96 41.7139 174.729 41.7139C173.509 41.7139 172.601 42.207 172.005 43.1934C171.419 44.1699 171.126 45.415 171.126 46.9287V47.2363C171.126 48.7793 171.419 50.0391 172.005 51.0156C172.601 51.9824 173.519 52.4658 174.759 52.4658ZM184.002 55V52.7441L186.199 52.3047V41.8604L183.885 41.4209V39.1504H189.598L189.788 41.4502C190.315 40.6299 190.97 39.9951 191.751 39.5459C192.542 39.0869 193.436 38.8574 194.432 38.8574C196.062 38.8574 197.332 39.3604 198.24 40.3662C199.148 41.3721 199.603 42.9346 199.603 45.0537V52.3047L201.8 52.7441V55H193.846V52.7441L195.911 52.3047V45.083C195.911 43.8818 195.672 43.0322 195.193 42.5342C194.715 42.0264 194.002 41.7725 193.055 41.7725C192.352 41.7725 191.731 41.9336 191.194 42.2559C190.657 42.5684 190.223 43.0078 189.891 43.5742V52.3047L191.897 52.7441V55H184.002ZM68.3379 95V92.7441L70.667 92.3047V76.3818L68.3379 75.9424V73.6719H78.3428C79.9248 73.6719 81.2822 73.9502 82.415 74.5068C83.5576 75.0635 84.4316 75.8398 85.0371 76.8359C85.6523 77.832 85.96 78.9893 85.96 80.3076C85.96 82.2998 85.2812 83.9014 83.9238 85.1123C82.5762 86.3135 80.7158 86.9141 78.3428 86.9141H74.3584V92.3047L76.6875 92.7441V95H68.3379ZM74.3584 84.0576H78.3428C79.6416 84.0576 80.6182 83.7061 81.2725 83.0029C81.9365 82.2998 82.2686 81.4111 82.2686 80.3369C82.2686 79.2432 81.9365 78.335 81.2725 77.6123C80.6182 76.8896 79.6416 76.5283 78.3428 76.5283H74.3584V84.0576ZM94.7637 95.3076C93.2402 95.3076 91.9316 94.9658 90.8379 94.2822C89.7441 93.5889 88.9043 92.6367 88.3184 91.4258C87.7324 90.2148 87.4395 88.8184 87.4395 87.2363V86.9287C87.4395 85.3564 87.7324 83.9648 88.3184 82.7539C88.9043 81.543 89.7441 80.5908 90.8379 79.8975C91.9316 79.2041 93.2305 78.8574 94.7344 78.8574C96.2578 78.8574 97.5664 79.2041 98.6602 79.8975C99.7539 80.5811 100.594 81.5332 101.18 82.7539C101.766 83.9648 102.059 85.3564 102.059 86.9287V87.2363C102.059 88.8281 101.766 90.2295 101.18 91.4404C100.594 92.6514 99.7539 93.5986 98.6602 94.2822C97.5762 94.9658 96.2773 95.3076 94.7637 95.3076ZM94.7637 92.4658C95.9844 92.4658 96.8926 91.9824 97.4883 91.0156C98.084 90.0391 98.3818 88.7793 98.3818 87.2363V86.9287C98.3818 85.415 98.0791 84.1699 97.4736 83.1934C96.8779 82.207 95.9648 81.7139 94.7344 81.7139C93.5137 81.7139 92.6055 82.207 92.0098 83.1934C91.4238 84.1699 91.1309 85.415 91.1309 86.9287V87.2363C91.1309 88.7793 91.4238 90.0391 92.0098 91.0156C92.6055 91.9824 93.5234 92.4658 94.7637 92.4658ZM103.86 101.094V98.8232L105.999 98.3838V81.8604L103.67 81.4209V79.1504H109.31L109.544 81.0254C110.042 80.332 110.638 79.7998 111.331 79.4287C112.034 79.0479 112.864 78.8574 113.821 78.8574C115.11 78.8574 116.214 79.209 117.132 79.9121C118.05 80.6152 118.748 81.5967 119.227 82.8564C119.715 84.1162 119.959 85.5908 119.959 87.2803V87.5879C119.959 89.1309 119.715 90.4834 119.227 91.6455C118.738 92.7979 118.035 93.6963 117.117 94.3408C116.199 94.9854 115.101 95.3076 113.821 95.3076C112.044 95.3076 110.662 94.6826 109.676 93.4326V98.3838L111.932 98.8232V101.094H103.86ZM112.708 92.4658C113.919 92.4658 114.812 92.0215 115.389 91.1328C115.975 90.2344 116.268 89.0527 116.268 87.5879V87.2803C116.268 85.6494 115.97 84.3262 115.374 83.3105C114.788 82.2852 113.89 81.7725 112.679 81.7725C111.995 81.7725 111.399 81.9287 110.892 82.2412C110.384 82.5439 109.979 82.9736 109.676 83.5303V90.7959C110.311 91.9092 111.321 92.4658 112.708 92.4658ZM121.717 95V92.7441L123.914 92.3047V81.8604L121.585 81.4209V79.1504H127.605V92.3047L129.788 92.7441V95H121.717ZM123.768 75.5615V72.1484H127.605V75.5615H123.768ZM131.37 95V92.7441L133.567 92.3047V81.8604L131.253 81.4209V79.1504H136.966L137.156 81.4502C137.684 80.6299 138.338 79.9951 139.119 79.5459C139.91 79.0869 140.804 78.8574 141.8 78.8574C143.431 78.8574 144.7 79.3604 145.608 80.3662C146.517 81.3721 146.971 82.9346 146.971 85.0537V92.3047L149.168 92.7441V95H141.214V92.7441L143.279 92.3047V85.083C143.279 83.8818 143.04 83.0322 142.562 82.5342C142.083 82.0264 141.37 81.7725 140.423 81.7725C139.72 81.7725 139.1 81.9336 138.562 82.2559C138.025 82.5684 137.591 83.0078 137.259 83.5742V92.3047L139.266 92.7441V95H131.37ZM156.067 95.3076C154.456 95.3076 153.201 94.8926 152.303 94.0625C151.404 93.2324 150.955 92.0898 150.955 90.6348C150.955 89.1406 151.561 87.9297 152.771 87.002C153.992 86.0742 155.74 85.6104 158.016 85.6104H160.433V84.2773C160.433 83.4375 160.179 82.7686 159.671 82.2705C159.173 81.7725 158.445 81.5234 157.488 81.5234C156.941 81.5234 156.458 81.5918 156.038 81.7285C155.618 81.8555 155.242 82.041 154.91 82.2852L154.588 84.4238H151.863L151.834 80.5127C152.605 79.9951 153.47 79.5898 154.427 79.2969C155.394 79.0039 156.463 78.8574 157.635 78.8574C159.646 78.8574 161.229 79.3311 162.381 80.2783C163.543 81.2256 164.124 82.5732 164.124 84.3213V91.3086C164.124 91.5234 164.124 91.7334 164.124 91.9385C164.134 92.1338 164.148 92.334 164.168 92.5391L165.779 92.7441V95H160.96C160.862 94.6582 160.77 94.3262 160.682 94.0039C160.604 93.6816 160.545 93.3594 160.506 93.0371C159.979 93.7012 159.339 94.248 158.587 94.6777C157.835 95.0977 156.995 95.3076 156.067 95.3076ZM156.902 92.4512C157.654 92.4512 158.348 92.2803 158.982 91.9385C159.627 91.5869 160.11 91.1475 160.433 90.6201V87.9688H157.972C156.868 87.9688 156.033 88.2275 155.467 88.7451C154.91 89.2529 154.632 89.8486 154.632 90.5322C154.632 91.8115 155.389 92.4512 156.902 92.4512Z" fill="black"/>
</g>
<rect y="25.9824" width="230.033" height="2.00226" fill="#9B51E0"/>
<defs>
<filter id="filter0_d" x="28.4932" y="32.1484" width="177.307" height="76.9453" filterUnits="userSpaceOnUse" color-interpolation-filters="sRGB">
<feFlood flood-opacity="0" result="BackgroundImageFix"/>
<feColorMatrix in="SourceAlpha" type="matrix" values="0 0 0 0 0 0 0 0 0 0 0 0 0 0 0 0 0 0 127 0"/>
<feOffset dy="4"/>
<feGaussianBlur stdDeviation="2"/>
<feColorMatrix type="matrix" values="0 0 0 0 0 0 0 0 0 0 0 0 0 0 0 0 0 0 0.25 0"/>
<feBlend mode="normal" in2="BackgroundImageFix" result="effect1_dropShadow"/>
<feBlend mode="normal" in="SourceGraphic" in2="effect1_dropShadow" result="shape"/>
</filter>
</defs>
</svg>
